<svg width="24" height="24" viewBox="0 0 24 24" fill="none" xmlns="http://www.w3.org/2000/svg">
<path d="M14 8.00024V6.00024C14 5.46981 13.7893 4.9611 13.4142 4.58603C13.0391 4.21096 12.5304 4.00024 12 4.00024H5C4.46957 4.00024 3.96086 4.21096 3.58579 4.58603C3.21071 4.9611 3 5.46981 3 6.00024V18.0002C3 18.5307 3.21071 19.0394 3.58579 19.4145C3.96086 19.7895 4.46957 20.0002 5 20.0002H12C12.5304 20.0002 13.0391 19.7895 13.4142 19.4145C13.7893 19.0394 14 18.5307 14 18.0002V16.0002" stroke="#2C3E50" stroke-width="1.5" stroke-linecap="round" stroke-linejoin="round"/>
<path d="M7.00061 12H21.0006M21.0006 12L18.0006 9M21.0006 12L18.0006 15" stroke="#2C3E50" stroke-width="1.5" stroke-linecap="round" stroke-linejoin="round"/>
</svg>
